<svg id="Layer_2" data-name="Layer 2" xmlns="http://www.w3.org/2000/svg" viewBox="0 0 619.29 84.09"><defs><style>.cls-1{fill:#fff;}</style></defs><path d="M526.62,176.92c-1.25-5.21-4.16-9.8-5.58-15s-2.62-10.4-5.75-15c-2.74-4-5.7-7.91-6.69-12.85-.23-1.14-1.11-1.51-2.12-.56-1.19,1.11-2.23,1.45-2.94-.49-.42-1.12-1.4-1.12-2.39-1.09-4.48.13-3.67,3.84-4,6.34-.81,6.32-1.17,12.71-1.71,19.07-.06.72-.15,1.46-1.07,1.58a1.21,1.21,0,0,1-1.34-1c-2-6.63-6.5-11.81-10-17.57-3.36-5.47-7.36-9.26-14.41-7.43-1.18.3-1.66-.4-2.18-1.31-1.29-2.26-3.52-2.59-5.64-1.84-5.57,2-8.09,6.92-9.58,11.93-1.32,4.48-2.73,9-4,13.52-1.46,5.24,1,11-2.66,15.76-.05.07,0,.23.05.35.89,3.35,1.95,6.67,2.62,10.07.79,4,4.34,5.49,6.82,7.95a1.61,1.61,0,0,0,2,.08c5.45-3.61,10.49-8.18,10.72-14.81.32-8.81,3.29-16.91,4.78-25.37.12-.71-.22-1.88,1.06-1.92,1.07,0,1.17,1,1.56,1.7,3.23,5.72,5.26,12,7.91,17.93,3.94,8.89,6.21,18.78,15.28,24.58,2.13,1.36,7.22,2,8.49-.06,1.86-3,6.58-4.77,4.6-9.69A1.67,1.67,0,0,1,512,179.8c1.25,0,1.35,1.16,1.51,2.07.12.7-.13,1.5.11,2.13,1.3,3.38,2.43,7.06,6.39,8.26,1.66.51,3.54,2.35,4.92,1.31,1.65-1.25-1.73-2.55-.88-4.58,1.78.17,2.41,1.66,3.51,2.49.48.36,1,.72,1.63.39a1.25,1.25,0,0,0,.63-1.52Q528.23,183.65,526.62,176.92Z" transform="translate(-444.53 -121.79)"/><path d="M600.28,177.88c-6,.16-11.94,1.44-18.13.18-4.4-.9-9.17-1.68-13.8-.09-1.73.59-2.41-.76-2.55-2.17-.37-3.54-.73-7.1-.86-10.66-.09-2.44,1.64-3.48,3.53-2.27,3,1.89,5.25.56,7.62-.8,5.12-3,9.43-6.95,10.82-12.76,1.13-4.75,3.87-6.71,8.23-7.48.67-.12,1.92.26,2-1s-1-1.68-1.92-1.79a33.52,33.52,0,0,0-10.18.25c-4.92.89-8.21,4.59-12.7,6-1.31.41-2.56,1.85-4,.92s-.43-2.66-.69-4.06c.48-1.87,1-3.85-1.73-4.52s-4.87-.72-6.35,2.25a48.7,48.7,0,0,0-5.47,21.87c0,7.29-1.19,14.49-.85,21.74.16,3.31.5,6.95,3,9.3,2,1.8,3.94,4.73,6.6,4.61,3.55-.17,7.31-.58,10.67-2.27a16.53,16.53,0,0,1,7.64-1.58c9.51.05,16.42-4.17,21.26-12.13.57-1,1.16-1.85.41-3S601.25,177.85,600.28,177.88Z" transform="translate(-444.53 -121.79)"/><path d="M677,180.24c-5-1.87-10-3.08-15.34-2.23-1.85.3-3.71.86-4.35,2.65s.82,3.05,2.3,4a4.59,4.59,0,0,0,3.83,1.36c-1.71.74-3.26-.38-4.49.77-1.36.39-2.7.88-4.07,1.17-6.22,1.28-10-1.21-11-7.31-.16-.92.21-1.92,0-2.82-.49-2.3,1.75-4.39.64-6.59-1-1.9-.15-3,.87-4.49a64.47,64.47,0,0,0,5.55-8.62,70.59,70.59,0,0,1,5.53-8.63,27.3,27.3,0,0,1,7-6.81c3-2,2.53-6.35-.8-7-2.82-.53-5.91-1.26-9,.52-10.43,6.11-15.88,16-19.74,26.64-4.05,11.16-2.94,22.23,4.39,32.19a30.5,30.5,0,0,0,12.78,9.88c5,2.09,11,.3,16.24-1.59,6.44-2.32,10.15-7.69,13.45-13.22C683.28,186,681.53,182,677,180.24Z" transform="translate(-444.53 -121.79)"/><path d="M778.58,128.71a2.57,2.57,0,0,1-1-1c-1.12-1.71-2.76-1.87-4.65-2-4.25-.41-7.15,1.94-10.29,4.16C757.5,133.47,755.3,140,749,142.61c-3.85,1.62-2.48,6-2.17,9.18.39,4.22,1.26,8.49,1.44,12.63.16,3.58-.17,7.22.5,10.84,1.23,6.68,5.85,11.88,8,18.19.57,1.7,2.46,2.52,4.35,2.73a4.81,4.81,0,0,1,2,.4c2.84,1.61,3.9,1.21,4.35-2.07.72-5.21-1.89-9.86-3.28-14.61-1.62-5.59-5.4-10.62-3.2-16.92.15-.42-.42-1.06-.61-1.62-.45-1.33-1-2.67-.18-4.06a38,38,0,0,0,2.39-6.16c2.13-6.79,7-11.68,12.34-16.14,1.22-1,2.15-.36,3,.68,2.21,2.68,2.2,6.41-.05,10.29a19.6,19.6,0,0,1-12.44,9.4c-1.72.46-4,.6-3.72,3.39,1.19,1.13,1.82,3.23,3.59,3.29,4.36.15,8.77,4.49,13.14,0,.25-.26.9-.16,1.36-.19,3.2-.17,5.51-2.39,7.21-4.42,3.55-4.25,3.44-9.85,2.4-14.81C788.2,136.51,784.86,131.29,778.58,128.71Z" transform="translate(-444.53 -121.79)"/><path d="M889.69,139.43a12.08,12.08,0,0,1,.25-4.48c.15-.57,0-1.32-.74-1.18-.4.07-.67.83-1,1.27-2.47.76-2.93-.31-1.91-2.28.53-1,.71-1.81-.39-2.37s-2.09-1.83-3.22-.86c-1.38,1.19-3.35,2-3.55,4.23a55.49,55.49,0,0,0,0,11c.52,4.88,2.52,9.51,2.31,14.49-.06,1.24.64,2.81-1,3.43s-2.82,0-4.18-1.16c-3.88-3.29-6.86-7.49-11.57-10-4.34-2.31-7.69-1.33-8,3.58a59.38,59.38,0,0,1-1.49,11.2c-.35,1.42-.86,2.78-2.27,2.76-1.69,0-1.87-1.95-1.74-3,.35-3-2.11-5.37-1.4-8.44.27-1.2-.88-2.4-2-3.21-.78-.57-1.54-1.22-2.58-.68s-.89,1.32-.87,2.18c.09,4.14-.59,8.37.83,12.38,2.41,6.81,5.29,13.25,13.37,15.3,4.09,1,7.55-.39,8.49-4.45s2-8.33.64-12.67c-.37-1.13-1-2.94.28-3.6,1.41-.76,2.16,1,3,1.91,3.92,3.85,7.74,8,13.07,9.78,3.59,1.22,7.86,2.21,10.89-.72,4.11-3.95,6.6-9.07,5.19-15C898.45,151.49,895.46,144.68,889.69,139.43Z" transform="translate(-444.53 -121.79)"/><path d="M1020.5,167.12c-2.75,1.25-5.72,1.37-8.69,1.75-4.11.54-7.16-1.2-10.37-3.08-3.78-2.21-5-5.57-4.42-9.65.24-1.72-2.14-3-.78-4.66,2.12-2.56,2.28-5.87,3.36-8.77,1.89-5.09,4.13-9.7,8.32-13.2.66-.55.69-1,.24-1.39-1.65-1.4-2.41-4.05-5.27-3.78-.58,0-1.16.11-1.56-.53-1.58-2.56-1.66-2.63-4-.52A76.57,76.57,0,0,0,981,144c-1.16,2.13-2.13,3.12-4.13.83-.86-1-1.77-2.35-3.6-1.54s-1.56,2.12-1.62,3.58c-.29,6.9.33,13.77.6,20.65.23,5.86-1.18,11.78,1.61,17.43.72,1.46,6.46,4.35,7.93,3.56a2.22,2.22,0,0,0,1.11-1.27c.59-2.75,1.55-5.34,1.11-8.36-1-6.81-1.39-13.64.84-20.43a24.93,24.93,0,0,0,1.18-6.18c.2-3.49,1.88-6.19,3.52-9,.36-.63,1.1-1.23,1.79-.85,1.09.58.36,1.55-.06,2.11-2.76,3.68-2.17,8.15-3.27,12.9,1.8,3,1.23,7.78,4.1,10.52,5.48,5.24,11.42,10.08,19.1,12.13,5.92,1.58,8.42.36,10.15-5.48A3.63,3.63,0,0,1,1023,172c1.31-.69,3-1.59,1.79-3.52A3.1,3.1,0,0,0,1020.5,167.12Z" transform="translate(-444.53 -121.79)"/><path d="M963.23,168.24c-1.22-.91-2.32-2-4.44-1.07a81.74,81.74,0,0,0-11.1,6.49,26.83,26.83,0,0,1-9.59,3.61c-1.71.33-3.87-.32-4-2.14s2.17-.52,3.1-1.08c2.92-1.78,6.7-1.74,8.39-6.13,1.61-4.2,3-8.83,6.4-12.29.83-.86,1.68-1.82.24-3a2.91,2.91,0,0,0-3.74-.48c-4.17,2-7.56,5.5-12.08,6.77-1.8.5-3.78,3.26-5.34,1.22-1.27-1.65,1.39-3.45,2.17-5.25,1-2.3,3.94-3.46,4-6.17.13-4.47,3-7.5,5.3-10.84,1.16-1.72,1.44-3.17.39-4.9s-2.66-1.35-4.12-.79a9,9,0,0,0-3.42,1.88c-7.59,8.34-15,16.79-14.1,29.27.25,8.28,2.25,15.83,9.22,21.34,2.15,1.69,4.65,2.88,6.5,5,3.45,4,11.64,4.68,16.18,2.09s5.75-7.46,8.87-11a1.22,1.22,0,0,0,0-1.62c-1.94-2.81-.46-5.39.54-8C963,170.25,964.8,169.42,963.23,168.24Z" transform="translate(-444.53 -121.79)"/><path d="M1063.67,130.2a5,5,0,0,0-3.52-2.83,13.32,13.32,0,0,0-4.27.1c-4.56.72-8.24,3.51-12.33,5.32-4.83,2.14-8.4,5.06-9.94,10.28-.88,3,.62,9.64,3,11.72a40.31,40.31,0,0,0,9.94,6.35c1.36.61,2.29,1.42,1.16,3a56.72,56.72,0,0,1-8.53,10.06c-1.32,1.15-3,3.13-5.27,1.71a1.72,1.72,0,0,0-2.49.24c-.88.85-.37,1.66-.15,2.61.41,1.77,2.58,1.72,3.1,3.29,1.66,5.08,6.81,3.63,9.87,5.37,2.75.21,4.13-1.87,6.19-2.51,8.9-2.75,12.68-12.7,7.8-20.28-.51-.79-1.47-1.65-.37-2.44,1.76-1.26.4-2-.33-2.75-3.75-4-7.34-8.2-12.29-10.82-2.48-1.32-1.91-2.12-.09-3.76,5.11-4.62,12.06-6.73,16.54-12.15C1062.4,131.87,1064.38,131.68,1063.67,130.2Z" transform="translate(-444.53 -121.79)"/><path d="M820.67,142.33c.63-1.38-.36-2.43-.86-3.61-1.15-2.77-2.28-2.65-4-.33a8.94,8.94,0,0,0-1.51,7.11c.34,2.18-.49,3.42-1.8,5-3.47,4.25-7.44,8-9.77,13.3-2.53,5.76-3.25,11.25-1.29,17.11.55,1.65,1.31,3.64,3.46,3.61,2,0,3.37,1.1,5,1.53,2.38.6,4.65,2.35,7.41.49,5.38-3.64,7.54-9.23,8.54-15a38.27,38.27,0,0,0-4.72-26.43A3.54,3.54,0,0,1,820.67,142.33Zm-1.32,24.44c-.27,2.08-.78,4.53-3.74,4.73-3.69.12-4.69-2.68-5.41-5.32-.86-3.18,1.75-3.28,3.89-3.56C817.26,162.22,819.84,162.88,819.35,166.77Z" transform="translate(-444.53 -121.79)"/><path d="M595.64,156.55c-2-1.6-4-.19-5.1,1-4,4.43-8.93,6.52-14.62,7.39-1.24.19-2.24.68-1.62,2.42,1.76,4.93,8.1,9.13,13.23,8.79a54.74,54.74,0,0,0,5.6-1.05c2.66-.78,4.2-3.19,3.31-5.39-1-2.47,1.77-5.42-1.27-7.37-.1-.06.27-.85.42-1.3C596.1,159.57,597.45,158,595.64,156.55Z" transform="translate(-444.53 -121.79)"/><path class="cls-1" d="M765.49,155.37a19.6,19.6,0,0,0,12.44-9.4c2.25-3.88,2.26-7.61.05-10.29-.86-1-1.79-1.71-3-.68-5.33,4.46-10.21,9.35-12.34,16.14a38,38,0,0,1-2.39,6.16l1.53,1.46C761.48,156,763.77,155.83,765.49,155.37Z" transform="translate(-444.53 -121.79)"/><path class="cls-1" d="M814.09,162.62c-2.14.28-4.75.38-3.89,3.56.72,2.64,1.72,5.44,5.41,5.32,3-.2,3.47-2.65,3.74-4.73C819.84,162.88,817.26,162.22,814.09,162.62Z" transform="translate(-444.53 -121.79)"/></svg>